<?xml version="1.0" encoding="UTF-8" standalone="no"?>
<!DOCTYPE svg PUBLIC "-//W3C//DTD SVG 1.1//EN"
 "http://www.w3.org/Graphics/SVG/1.1/DTD/svg11.dtd">
<!-- Generated by graphviz version 2.38.0 (20140413.2041)
 -->
<!-- Title: %3 Pages: 1 -->
<svg width="172pt" height="215pt"
 viewBox="0.00 0.00 172.00 215.00" xmlns="http://www.w3.org/2000/svg" xmlns:xlink="http://www.w3.org/1999/xlink">
<g id="graph0" class="graph" transform="scale(1 1) rotate(0) translate(4 211)">
<title>%3</title>
<polygon fill="#000000" stroke="none" points="-4,4 -4,-211 168,-211 168,4 -4,4"/>
<text text-anchor="middle" x="82" y="-9.4" font-family="Times,serif" font-size="17.00" fill="white">Un grafo con estilo</text>
<!-- A -->
<g id="node1" class="node"><title>A</title>
<polygon fill="#006699" stroke="white" points="81,-50.5623 54,-63 27,-50.5623 37.3131,-30.4377 70.6869,-30.4377 81,-50.5623"/>
<text text-anchor="middle" x="54" y="-41.3" font-family="Arial" font-size="14.00" fill="white">A</text>
</g>
<!-- B -->
<g id="node2" class="node"><title>B</title>
<polygon fill="#006699" stroke="white" points="54,-122.562 27,-135 0,-122.562 10.3131,-102.438 43.6869,-102.438 54,-122.562"/>
<text text-anchor="middle" x="27" y="-113.3" font-family="Arial" font-size="14.00" fill="white">B</text>
</g>
<!-- A&#45;&gt;B -->
<g id="edge1" class="edge"><title>A&#45;&gt;B</title>
<path fill="none" stroke="white" stroke-dasharray="5,2" d="M48.4056,-60.504C44.8472,-69.7296 40.1573,-81.8885 36.0746,-92.4733"/>
<polygon fill="white" stroke="white" points="32.403,-101.992 31.8033,-91.0427 34.2024,-97.3272 36.0018,-92.6622 36.0018,-92.6622 36.0018,-92.6622 34.2024,-97.3272 40.2003,-94.2816 32.403,-101.992 32.403,-101.992"/>
</g>
<!-- C -->
<g id="node3" class="node"><title>C</title>
<polygon fill="#006699" stroke="white" points="164,-194.562 137,-207 110,-194.562 120.313,-174.438 153.687,-174.438 164,-194.562"/>
<text text-anchor="middle" x="137" y="-185.3" font-family="Arial" font-size="14.00" fill="white">C</text>
</g>
<!-- A&#45;&gt;C -->
<g id="edge3" class="edge"><title>A&#45;&gt;C</title>
<path fill="none" stroke="white" stroke-dasharray="5,2" d="M60.8586,-60.1385C69.6216,-77.9199 85.5153,-109.241 101,-135 107.254,-145.403 114.718,-156.568 121.223,-165.954"/>
<polygon fill="white" stroke="white" points="127.096,-174.326 117.669,-168.724 124.225,-170.233 121.353,-166.139 121.353,-166.139 121.353,-166.139 124.225,-170.233 125.037,-163.555 127.096,-174.326 127.096,-174.326"/>
</g>
<!-- B&#45;&gt;C -->
<g id="edge2" class="edge"><title>B&#45;&gt;C</title>
<path fill="none" stroke="white" stroke-dasharray="5,2" d="M42.7603,-128.029C60.4337,-139.276 89.3863,-157.7 110.543,-171.164"/>
<polygon fill="white" stroke="white" points="119.078,-176.595 108.225,-175.023 114.86,-173.911 110.641,-171.226 110.641,-171.226 110.641,-171.226 114.86,-173.911 113.057,-167.43 119.078,-176.595 119.078,-176.595"/>
</g>
<!-- D -->
<g id="node4" class="node"><title>D</title>
<polygon fill="#006699" stroke="white" points="164,-122.562 137,-135 110,-122.562 120.313,-102.438 153.687,-102.438 164,-122.562"/>
<text text-anchor="middle" x="137" y="-113.3" font-family="Arial" font-size="14.00" fill="white">D</text>
</g>
<!-- D&#45;&gt;C -->
<g id="edge4" class="edge"><title>D&#45;&gt;C</title>
<path fill="none" stroke="green" stroke-dasharray="5,2" d="M122.134,-128.329C116.982,-137.836 115.528,-152.286 117.77,-164.585"/>
<polygon fill="green" stroke="green" points="120.523,-174.254 113.456,-165.868 119.154,-169.445 117.785,-164.636 117.785,-164.636 117.785,-164.636 119.154,-169.445 122.113,-163.404 120.523,-174.254 120.523,-174.254"/>
</g>
<!-- D&#45;&gt;C -->
<g id="edge5" class="edge"><title>D&#45;&gt;C</title>
<path fill="none" stroke="green" stroke-dasharray="5,2" d="M131.407,-132.504C130.246,-141.539 129.959,-153.388 130.545,-163.817"/>
<polygon fill="green" stroke="green" points="131.472,-173.992 126.083,-164.442 131.019,-169.013 130.565,-164.033 130.565,-164.033 130.565,-164.033 131.019,-169.013 135.046,-163.625 131.472,-173.992 131.472,-173.992"/>
</g>
<!-- D&#45;&gt;C -->
<g id="edge6" class="edge"><title>D&#45;&gt;C</title>
<path fill="none" stroke="green" stroke-dasharray="5,2" d="M142.593,-132.504C143.754,-141.539 144.041,-153.388 143.455,-163.817"/>
<polygon fill="green" stroke="green" points="142.528,-173.992 138.954,-163.625 142.981,-169.013 143.435,-164.033 143.435,-164.033 143.435,-164.033 142.981,-169.013 147.917,-164.442 142.528,-173.992 142.528,-173.992"/>
</g>
<!-- D&#45;&gt;C -->
<g id="edge7" class="edge"><title>D&#45;&gt;C</title>
<path fill="none" stroke="green" stroke-dasharray="5,2" d="M151.866,-128.329C157.018,-137.836 158.472,-152.286 156.23,-164.585"/>
<polygon fill="green" stroke="green" points="153.477,-174.254 151.887,-163.404 154.846,-169.445 156.215,-164.636 156.215,-164.636 156.215,-164.636 154.846,-169.445 160.544,-165.868 153.477,-174.254 153.477,-174.254"/>
</g>
</g>
</svg>
